<svg width="1200" height="800" xmlns="http://www.w3.org/2000/svg">
  <defs>
    <radialGradient id="cloudGradient" cx="50%" cy="50%" r="50%">
      <stop offset="0%" style="stop-color:#dda0dd;stop-opacity:0.8" />
      <stop offset="100%" style="stop-color:#e6e6fa;stop-opacity:0.4" />
    </radialGradient>
  </defs>
  <!-- Cloud 1 -->
  <ellipse cx="200" cy="150" rx="80" ry="50" fill="url(#cloudGradient)" />
  <ellipse cx="250" cy="140" rx="70" ry="45" fill="url(#cloudGradient)" />
  <ellipse cx="300" cy="160" rx="60" ry="40" fill="url(#cloudGradient)" />
  <!-- Cloud 2 -->
  <ellipse cx="600" cy="100" rx="90" ry="55" fill="url(#cloudGradient)" />
  <ellipse cx="650" cy="90" rx="75" ry="50" fill="url(#cloudGradient)" />
  <ellipse cx="700" cy="110" rx="65" ry="45" fill="url(#cloudGradient)" />
  <!-- Cloud 3 -->
  <ellipse cx="400" cy="300" rx="85" ry="50" fill="url(#cloudGradient)" />
  <ellipse cx="450" cy="290" rx="70" ry="45" fill="url(#cloudGradient)" />
  <ellipse cx="500" cy="310" rx="60" ry="40" fill="url(#cloudGradient)" />
  <!-- Cloud 4 -->
  <ellipse cx="800" cy="250" rx="80" ry="50" fill="url(#cloudGradient)" />
  <ellipse cx="850" cy="240" rx="65" ry="45" fill="url(#cloudGradient)" />
  <ellipse cx="900" cy="260" rx="55" ry="35" fill="url(#cloudGradient)" />
  <!-- Cloud 5 -->
  <ellipse cx="100" cy="400" rx="75" ry="45" fill="url(#cloudGradient)" />
  <ellipse cx="150" cy="390" rx="60" ry="40" fill="url(#cloudGradient)" />
  <ellipse cx="200" cy="410" rx="50" ry="35" fill="url(#cloudGradient)" />
</svg>